_________________________  Visit us at _________________________
  
http://p2pdl.com  ____________________________  http://p2pdl.com


Welcome To The Punch 2013 BRRip 480p x264 - VYTO


Genre: Action | Adventure | Crime
Plot: Ex-criminal Jacob Sternwood is forced to return to London when his son is involved in a heist gone
wrong. This gives his nemesis, detective Max Lewinsky, one last chance to catch the man he's always been
after.    
Director: Eran Creevy
Stars: James McAvoy, Andrea Riseborough, Mark Strong.
Rated: R for violence and language.


Info: 
http://www.imdb.com/title/tt1684233/

Trailer:


Format                         : MPEG-4
File size                      : 351 MiB
Duration                       : 1h 46mn
Overall bit rate               : 461 Kbps
Source                         : 720p.Bluray.x264.DTS-NYDIC

Video
Format                         : AVC
Bit rate                       : 448 Kbps
Width                          : 720 pixels
Height                         : 400 pixels
Display aspect ratio           : 16:9
Frame rate mode                : Constant
Frame rate                     : 23.976 fps
Stream size                    : 319 MiB (91%)
Writing library                : x264 core 130 r2273

Audio
ID                             : 2
Bit rate mode                  : Variable
Bit rate                       : 40.0 Kbps
Channel(s)                     : 2 channels
Channel positions              : Front: L R
Sampling rate                  : 44.1 KHz
Stream size                    : 30.5 MiB (9%)
Language                       : English

Subtitle                       : N/a

 
http://www.ultraimg.com/images/1GkiM.png 
http://www.ultraimg.com/images/ApV8x.png 
http://www.ultraimg.com/images/Shagz.png 
http://www.ultraimg.com/images/zhBjK.png 
http://www.ultraimg.com/images/ZeCFN.png 
http://www.ultraimg.com/images/FGM7w.png


----------------------------------------------------------------------------------------------------


Encoded using revolutionary 10bit encoding, which enables us to provide you more crispier 
and sharper images at small sizes, just make sure you follow our instructions without a fault.
Recommend to you to use latest version of VLC player. Install K-Lite Codec Pack or shark007 codecs
in case of any kind of problem in playback (For non-VLC Media Player users). Alternatively, install
Core AVC codecs, the fastest decoder that there is coupled with Community Center Codec Pack and play
on Windows Media Player Classic. Check sample to be sure.
Enjoy!

Encoder Notes:Looking For Early Access To Anything You Can Provide DVDScr, R5, DVDR, BluRay, Direct
Audio, Music Releases and Seedboxes. We require dedicated servers, so as to do more 
and fast releases of movies.
If You Got anything to offer please contact us at "contact@p2pdl.com".

Face book Fan Page:   
http://www.fb.me/p2pdl